<?xml version="1.0" encoding="UTF-8"?>
<!DOCTYPE svg PUBLIC "-//W3C//DTD SVG 1.1//EN" "http://www.w3.org/Graphics/SVG/1.1/DTD/svg11.dtd">
<!-- Creator: CorelDRAW X8 -->
<svg xmlns="http://www.w3.org/2000/svg" xml:space="preserve" width="677.333mm" height="381mm" version="1.1" style="shape-rendering:geometricPrecision; text-rendering:geometricPrecision; image-rendering:optimizeQuality; fill-rule:evenodd; clip-rule:evenodd"
viewBox="0 0 67733 38100"
 xmlns:xlink="http://www.w3.org/1999/xlink">
 <defs>
  <style type="text/css">
   <![CDATA[
    .str0 {stroke:black;stroke-width:20}
    .str1 {stroke:#A41A1A;stroke-width:20}
    .fil2 {fill:black}
    .fil3 {fill:#A41A1A}
    .fil1 {fill:black;fill-rule:nonzero}
    .fil0 {fill:#A41A1A;fill-rule:nonzero}
   ]]>
  </style>
 </defs>
 <g id="Layer_x0020_1">
  <metadata id="CorelCorpID_0Corel-Layer"/>
  <polygon class="fil0" points="8524,22080 10894,4983 11247,4983 18204,19008 25118,4983 25376,4983 27836,22080 26181,22080 24467,9841 18410,22080 17962,22080 11846,9745 10207,22080 "/>
  <path class="fil1" d="M4807 34822l-339 0 -276 -628 -451 0 0 628 -320 0 0 -1528 771 0c214,0 372,42 473,125 101,83 151,191 151,323 0,196 -107,331 -321,405l312 675zm-1066 -848l399 0c115,0 201,-21 258,-63 56,-42 84,-100 84,-173 0,-67 -27,-121 -83,-162 -55,-42 -133,-63 -233,-63l-425 0 0 461zm3985 848l-1156 0 0 -1528 1144 0 0 227 -824 0 0 415 662 0 0 221 -662 0 0 428 836 0 0 237zm1524 -368l312 -57c37,151 180,227 430,227 113,0 201,-19 262,-58 62,-39 92,-87 92,-145 0,-41 -14,-80 -41,-115 -28,-36 -88,-64 -179,-84l-340 -76c-117,-26 -202,-56 -258,-89 -56,-33 -101,-80 -134,-140 -33,-61 -50,-125 -50,-194 0,-137 59,-246 177,-329 119,-82 269,-124 454,-124 153,0 289,29 410,87 120,57 197,138 230,244l-305 65c-47,-116 -157,-174 -329,-174 -100,0 -176,18 -228,54 -53,36 -79,81 -79,137 0,87 82,148 247,183l303 65c183,39 306,98 368,175 63,78 94,163 94,256 0,150 -65,268 -197,354 -132,87 -302,130 -512,130 -176,0 -330,-32 -463,-96 -132,-63 -220,-162 -264,-296zm4302 368l-1156 0 0 -1528 1144 0 0 227 -823 0 0 415 661 0 0 221 -661 0 0 428 835 0 0 237zm3107 0l-343 0 -142 -363 -684 0 -140 363 -273 0 590 -1528 395 0 597 1528zm-571 -584l-259 -682 -260 682 519 0zm3606 584l-339 0 -277 -628 -451 0 0 628 -320 0 0 -1528 771 0c215,0 373,42 473,125 101,83 152,191 152,323 0,196 -107,331 -321,405l312 675zm-1067 -848l399 0c116,0 202,-21 258,-63 57,-42 85,-100 85,-173 0,-67 -28,-121 -83,-162 -56,-42 -134,-63 -234,-63l-425 0 0 461zm3805 317l298 29c-20,153 -89,279 -207,377 -119,99 -274,149 -467,149 -163,0 -295,-35 -396,-105 -101,-70 -179,-166 -234,-286 -54,-120 -82,-253 -82,-397 0,-233 64,-423 193,-569 129,-146 306,-219 530,-219 177,0 324,47 441,141 117,93 191,226 222,400l-298 27c-54,-231 -175,-346 -362,-346 -120,0 -213,48 -279,144 -67,96 -100,235 -100,417 0,185 35,325 107,419 71,95 165,142 283,142 93,0 173,-32 239,-95 66,-64 104,-139 112,-228zm3306 531l-320 0 0 -664 -679 0 0 664 -320 0 0 -1528 320 0 0 628 679 0 0 -628 320 0 0 1528zm5326 -927l268 41c-39,218 -144,410 -317,577 60,57 106,91 135,104 29,12 63,18 103,18 19,0 44,-1 79,-5l0 214 -124 2c-81,0 -147,-10 -199,-31 -52,-19 -119,-64 -200,-133 -178,109 -372,164 -581,164 -199,0 -361,-46 -486,-138 -124,-93 -187,-206 -187,-341 0,-86 29,-168 88,-246 58,-77 183,-152 375,-226 -104,-104 -155,-201 -155,-290 0,-99 43,-180 130,-241 87,-63 198,-94 334,-94 139,0 252,31 341,90 89,60 133,141 133,244 0,73 -30,143 -90,209 -60,68 -145,121 -257,159l386 379c122,-134 197,-286 224,-456zm-755 -89c151,-55 226,-122 226,-202 0,-43 -18,-77 -55,-102 -36,-25 -79,-37 -129,-37 -50,0 -94,13 -132,38 -38,25 -56,57 -56,98 0,66 48,134 146,205zm-136 257c-177,69 -266,164 -266,287 0,82 35,148 103,198 70,49 157,74 262,74 129,0 251,-36 366,-109l-465 -450zm4933 759l0 -1528 656 0c243,0 437,74 584,221 147,147 220,329 220,546 0,216 -76,398 -227,543 -151,146 -367,218 -649,218l-584 0zm330 -225l267 0c144,0 265,-46 365,-138 100,-93 150,-231 150,-414 0,-149 -44,-275 -131,-379 -87,-103 -203,-155 -346,-155l-305 0 0 1086zm4018 225l-1156 0 0 -1528 1144 0 0 227 -824 0 0 415 662 0 0 221 -662 0 0 428 836 0 0 237zm2395 0l-326 0 -548 -1528 338 0 408 1171 417 -1171 268 0 -557 1528zm3349 0l-1156 0 0 -1528 1144 0 0 227 -824 0 0 415 662 0 0 221 -662 0 0 428 836 0 0 237zm2805 0l-1094 0 0 -1528 337 0 0 1279 757 0 0 249zm2278 24c-236,0 -420,-76 -552,-229 -131,-152 -197,-340 -197,-564 0,-222 70,-409 210,-558 140,-150 324,-225 553,-225 232,0 415,75 549,225 134,149 201,337 201,561 0,236 -70,427 -209,572 -140,145 -324,218 -555,218zm3 -222c116,0 213,-41 293,-123 80,-82 120,-231 120,-447 0,-175 -33,-313 -99,-412 -66,-100 -169,-150 -307,-150 -275,0 -412,190 -412,570 0,184 34,324 105,419 69,96 170,143 300,143zm2814 198l-320 0 0 -1528 728 0c208,0 362,45 462,135 101,90 151,196 151,318 0,140 -55,253 -163,340 -109,86 -246,130 -413,130l-445 0 0 605zm0 -842l380 0c99,0 174,-21 226,-62 53,-42 78,-98 78,-167 0,-63 -24,-116 -72,-162 -48,-44 -135,-66 -261,-66l-351 0 0 457zm4458 842l-327 0 0 -1338 -492 1338 -168 0 -496 -1338 0 1338 -261 0 0 -1528 501 0 373 984 366 -984 504 0 0 1528zm2983 0l-1155 0 0 -1528 1144 0 0 227 -824 0 0 415 662 0 0 221 -662 0 0 428 835 0 0 237zm3055 0l-311 0 -676 -976c-10,-15 -27,-39 -50,-73 -11,-15 -27,-38 -48,-70l0 1119 -258 0 0 -1528 354 0 623 900c5,8 43,62 113,165l0 -1065 253 0 0 1528zm2447 0l-344 0 0 -1292 -473 0 0 -236 1290 0 0 236 -473 0 0 1292z"/>
  <path class="fil0" d="M42586 22172l0 -17097 3548 0c2556,0 4413,206 5568,615 1659,583 2957,1587 3889,3024 933,1433 1401,3139 1401,5124 0,1714 -369,3218 -1111,4520 -738,1302 -1702,2266 -2881,2885 -1183,620 -2842,929 -4973,929l-5441 0zm1643 -1619l1972 0c2358,0 3989,-147 4902,-441 1282,-420 2294,-1170 3028,-2258 734,-1091 1099,-2421 1099,-3992 0,-1647 -397,-3060 -1194,-4227 -794,-1171 -1905,-1973 -3326,-2405 -1068,-326 -2826,-488 -5275,-488l-1206 0 0 13811z"/>
  <polygon class="fil2 str0" points="34181,888 34935,888 34935,26210 34181,26210 "/>
  <polygon class="fil2 str0" points="32473,27732 32473,28486 2312,28486 2312,27732 "/>
  <polygon class="fil2 str0" points="66818,27737 66818,28491 36620,28491 36620,27737 "/>
  <path class="fil3 str1" d="M34529 25968c1261,0 2283,1022 2283,2283 0,1261 -1022,2283 -2283,2283 -1261,0 -2283,-1022 -2283,-2283 0,-1261 1022,-2283 2283,-2283zm0 640c907,0 1643,735 1643,1643 0,907 -736,1643 -1643,1643 -908,0 -1643,-736 -1643,-1643 0,-908 735,-1643 1643,-1643z"/>
 </g>
</svg>
